<svg width="100" height="40" viewBox="0 0 100 40" fill="none" xmlns="http://www.w3.org/2000/svg">
  <rect width="100" height="40" rx="4" fill="#1F2937" opacity="0"/>
  <path d="M24.9393 8C21.0249 8 17.8787 11.1462 17.8787 15.0606V24.9394C17.8787 28.8538 21.0249 32 24.9393 32H84.9393C88.8538 32 92 28.8538 92 24.9394V15.0606C92 11.1462 88.8538 8 84.9393 8H24.9393Z" fill="#3B82F6"/>
  <path d="M12.8787 12.1213C14.0502 10.9497 15.9497 10.9497 17.1213 12.1213L20.9393 15.9393C22.1109 17.1109 22.1109 19.0104 20.9393 20.1819L17.1213 24C15.9497 25.1716 14.0502 25.1716 12.8787 24L9.06065 20.1819C7.88909 19.0104 7.88909 17.1109 9.06065 15.9393L12.8787 12.1213Z" fill="#3B82F6"/>
  <text x="32" y="24" font-family="Arial, sans-serif" font-size="12" font-weight="bold" fill="#ffffff">Hotels</text>
</svg>