<svg width="200" height="60" viewBox="0 0 200 60" fill="none" xmlns="http://www.w3.org/2000/svg">
  <path d="M14.8 44V16H26.4C29.6 16 32.2667 16.6 34.4 17.8C36.5333 18.9333 38.1333 20.5333 39.2 22.6C40.2667 24.6667 40.8 27 40.8 29.6C40.8 32.2 40.2667 34.5333 39.2 36.6C38.1333 38.6667 36.5333 40.3 34.4 41.5C32.2667 42.7 29.6 43.3 26.4 43.3H19.6V38.5H25.8C27.8667 38.5 29.5333 38.1333 30.8 37.4C32.0667 36.6667 33 35.6667 33.6 34.4C34.2 33.1333 34.5 31.6667 34.5 30C34.5 28.3333 34.2 26.8667 33.6 25.6C33 24.3333 32.0667 23.3333 30.8 22.6C29.5333 21.8667 27.8667 21.5 25.8 21.5H21.1V44H14.8Z" fill="white"/>
  <path d="M52.9812 44.3C50.6479 44.3 48.6879 43.7333 47.1012 42.6C45.5145 41.4667 44.3545 39.8333 43.6212 37.7C42.8879 35.5667 42.5212 33.0333 42.5212 30.1C42.5212 27.1667 42.8879 24.6667 43.6212 22.6C44.3879 20.5 45.5479 18.8667 47.1012 17.7C48.6879 16.5333 50.6479 15.95 52.9812 15.95C55.3145 15.95 57.2612 16.5333 58.8212 17.7C60.4145 18.8667 61.5879 20.5 62.3412 22.6C63.0945 24.6667 63.4712 27.1667 63.4712 30.1C63.4712 33.0333 63.0945 35.5667 62.3412 37.7C61.5879 39.8333 60.4145 41.4667 58.8212 42.6C57.2612 43.7333 55.3145 44.3 52.9812 44.3ZM52.9812 39.45C54.7145 39.45 56.0345 38.6667 56.9412 37.1C57.8479 35.5333 58.3012 33.2 58.3012 30.1C58.3012 28.0333 58.1012 26.25 57.7012 24.75C57.3012 23.25 56.6945 22.0833 55.8812 21.25C55.0679 20.4167 54.0812 20 52.9212 20C51.1879 20 49.8812 20.7833 48.9812 22.35C48.0812 23.9167 47.6312 26.2333 47.6312 29.3C47.6312 31.4333 47.8312 33.2833 48.2312 34.85C48.6312 36.3833 49.2379 37.5667 50.0512 38.4C50.8645 39.1 51.8212 39.45 52.9812 39.45Z" fill="white"/>
  <path d="M71.6313 44V16H77.9313V38.5H90.1313V44H71.6313Z" fill="#3B82F6"/>
  <path d="M96.0266 44V16H120.277V21.5H102.327V26.9H118.777V32.4H102.327V38.5H120.427V44H96.0266Z" fill="white"/>
  <path d="M128.008 44V16H134.308V44H128.008Z" fill="white"/>
  <path d="M152.705 44.3C150.505 44.3 148.539 43.8333 146.805 42.9C145.105 41.9667 143.755 40.6667 142.755 39C141.789 37.3 141.272 35.3333 141.205 33.1H147.655C147.789 34.7 148.355 36 149.355 37C150.389 38 151.739 38.5 153.405 38.5C155.072 38.5 156.372 38.0667 157.305 37.2C158.239 36.3 158.705 35.1667 158.705 33.8C158.705 32.7333 158.389 31.85 157.755 31.15C157.122 30.45 156.289 29.9 155.255 29.5C154.255 29.0667 152.889 28.5833 151.155 28.05C148.789 27.3167 146.922 26.5833 145.555 25.85C144.189 25.1167 143.022 24.0333 142.055 22.6C141.122 21.1667 140.655 19.2833 140.655 16.95C140.655 14.7833 141.139 12.9 142.105 11.3C143.072 9.7 144.455 8.48333 146.255 7.65C148.055 6.81667 150.139 6.4 152.505 6.4C155.939 6.4 158.722 7.25 160.855 8.95C163.022 10.6167 164.289 12.9667 164.655 16H158.005C157.905 14.6667 157.339 13.5333 156.305 12.6C155.305 11.6333 153.989 11.15 152.355 11.15C150.922 11.15 149.772 11.5333 148.905 12.3C148.039 13.0333 147.605 14.1 147.605 15.5C147.605 16.5 147.889 17.3333 148.455 18C149.055 18.6333 149.822 19.1667 150.755 19.6C151.722 20 153.005 20.4667 154.605 21C156.972 21.7333 158.839 22.4833 160.205 23.25C161.605 24.0167 162.789 25.1167 163.755 26.55C164.722 27.9833 165.205 29.8667 165.205 32.2C165.205 34.1333 164.755 35.9333 163.855 37.6C162.955 39.2667 161.589 40.6 159.755 41.6C157.922 42.7333 155.572 43.3 152.705 43.3Z" fill="#3B82F6"/>
  <path d="M170.844 44V39.2L184.444 21.5H170.844V16H191.794V20.8L178.194 38.5H192.044V44H170.844Z" fill="white"/>
</svg>