<svg xmlns="http://www.w3.org/2000/svg" width="48" height="48" viewBox="0 0 48 48">
  <path d="M44 11.11c0-3.92-3.19-7.11-7.11-7.11H11.11C7.19 4 4 7.19 4 11.11v25.78C4 40.81 7.19 44 11.11 44h25.78c3.92 0 7.11-3.19 7.11-7.11V11.11z" fill="#000"/>
  <path fill="#fff" d="M20.91 16.2c.58-.73 1-1.7 1-2.7-.97.05-2.17.67-2.86 1.5-.57.67-.99 1.63-.86 2.57 1.05.08 2.09-.5 2.72-1.37m.16 2.38c-1.57-.09-2.9.89-3.65.89-.74 0-1.88-.87-3.1-.85-1.6.03-3.06.93-3.88 2.36-1.65 2.88-.42 7.15 1.19 9.5.79 1.14 1.72 2.42 2.96 2.37 1.19-.05 1.64-.76 3.08-.76 1.43 0 1.83.76 3.09.74 1.28-.02 2.09-1.16 2.87-2.3.9-1.32 1.27-2.6 1.29-2.66-.03-.01-2.47-.95-2.5-3.77-.02-2.36 1.93-3.48 2.01-3.54-1.1-1.63-2.81-1.81-3.4-1.85"/>
</svg>