<svg xmlns="http://www.w3.org/2000/svg" width="48" height="48" viewBox="0 0 128 128">
  <path d="M111.9 32H16.1C8.6 32 2.5 38.1 2.5 45.6v36.8c0 7.5 6.1 13.6 13.6 13.6h95.8c7.5 0 13.6-6.1 13.6-13.6V45.6c0-7.5-6.1-13.6-13.6-13.6z" fill="#000" fill-opacity=".07"/>
  <path d="M111.9 33.7c6.6 0 11.9 5.3 11.9 11.9v36.8c0 6.6-5.3 11.9-11.9 11.9H16.1c-6.6 0-11.9-5.3-11.9-11.9V45.6c0-6.6 5.3-11.9 11.9-11.9h95.8z" fill="#fff"/>
  <path d="M64 51.9c-3.3 0-5.4 1.6-5.4 4.3 0 3.1 6.6 3.6 6.6 7.2 0 1.3-1.4 2-2.6 2-2.2 0-3.8-1-3.8-1l-.7 3.2s2 .9 4.4.9c3.5 0 6.2-1.7 6.2-4.6 0-3.5-6.6-3.7-6.6-7.1 0-1 1.1-1.9 2.8-1.9 1.6 0 3.1.7 3.1.7l.7-3c-.1-.1-1.5-.7-4.7-.7z" fill="#000"/>
  <path d="M76.5 52.1h-3.7l-3.9 18.3h3.7l3.9-18.3zm-8.1 0l-3.8 12.4-1.6-7.8s-.2-1.3-1-2.1c-1.1-1.1-2.9-2-4.7-2.6L61 70.5h4.3l6.4-18.3h-3.3v-.1zm-13.5 18.4H52l-3.2-18.3h-3.5l-3.8 14c-.1 0 1.6-7.1-7.6-14v18.3h-4.3l3.9-18.3h-3.7L26.7 52c-2.4 0-4.1 2.7-4.1 5.8 0 3.1 1.7 5.8 4.1 5.8l2.8 8.9h8.6V52.1h-3.7l-3.9 18.3h3.7" fill="#000" fill-opacity=".5"/>
  <path d="M117.4 70.5h3.7L116.9 58l2 .4c1 .3 1.8 1 2.1 1.9.4 1.1.7 2.4.7 4.7h3.8c0-3-.6-5.2-1.3-6.5-1.1-2-3.2-3.3-5.4-3.4l-2.2-.4h-12v3.7h4.6c-1.9 0-3.5 1.5-3.5 3.4 0 1.9 1.7 3.4 3.5 3.4 1.9 0 3.5-1.5 3.5-3.4 0-.4-.1-.9-.2-1.3l.9-.2 4 10.2z" fill="#000"/>
  <path d="M43.5 92.6h3.2v-8.8h5.3v-2.7h-5.3v-3.3h6.1V75H43.5v17.6zm17.4 0h2.9v-6.4c0-1-.1-1.8-.2-2.5h.1c.2.6.5 1.1.7 1.7l3.9 7.3h3.6V75h-2.9v6c0 1 .1 1.9.2 2.7h-.1c-.2-.6-.5-1.2-.8-1.8L64.5 75h-3.6v17.6zm16.2-14.9h3.3V92.6H84v-14.9h3.3V75H77.1v2.7zm14.3 9.4L88.9 75h-3.2v17.6h3V80.1c0-.7 0-1.3-.1-1.9h.1c.2.6.4 1.1.7 1.7l3.9 12.7h1.9l3.9-12.7c.3-.6.6-1.2.7-1.7h.1c-.1.6-.1 1.3-.1 1.9v12.5H103V75h-3.2l-2.5 12.1zm10.5 5.5h9.1v-2.7h-6v-5h5.2v-2.7h-5.2v-4.5h5.7V75h-8.8v17.6z" fill="#000"/>
  <path d="M50.2 63.9c0-4.2 2-8 5.2-10.4-2.3-1.8-5.2-2.9-8.4-2.9-7.4 0-13.4 6-13.4 13.4s6 13.4 13.4 13.4c3.2 0 6.1-1.1 8.4-2.9-3.2-2.5-5.2-6.3-5.2-10.6z" fill="#F04E23"/>
  <path d="M76.8 50.6c-3.2 0-6.1 1.1-8.4 2.9 3.2 2.4 5.2 6.2 5.2 10.4 0 4.2-2 8-5.2 10.4 2.3 1.8 5.2 2.9 8.4 2.9 7.4 0 13.4-6 13.4-13.4s-6-13.2-13.4-13.2z" fill="#FDB827"/>
  <path d="M63.6 53.5c-3.2 2.4-5.2 6.2-5.2 10.4 0 4.2 2 8 5.2 10.4 3.2-2.4 5.2-6.2 5.2-10.4 0-4.2-2-8-5.2-10.4z" fill="#F37521"/>
</svg>