<svg xmlns="http://www.w3.org/2000/svg" width="48" height="48" viewBox="0 0 48 48">
  <path fill="#0079BE" d="M44 11.11v25.78c0 3.92-3.19 7.11-7.11 7.11H11.11C7.19 44 4 40.81 4 36.89V11.11C4 7.19 7.19 4 11.11 4h25.78C40.81 4 44 7.19 44 11.11z"/>
  <path fill="#FFFFFF" d="M32.49 21.12h-1.17c-.08 0-.15.06-.16.15l-.47 2.95c0 .07.03.13.1.13h.56c.08 0 .14-.06.15-.13l.13-.84c.01-.08.08-.14.16-.14h.37c.76 0 1.2-.37 1.31-1.1.05-.32.01-.57-.14-.75-.16-.2-.39-.27-.84-.27m.13 1.1c-.06.42-.37.42-.67.42h-.17l.12-.76c0-.05.05-.08.1-.08h.08c.2 0 .4 0 .5.12.05.07.07.17.04.3m3.16-.03h-1.17c-.09 0-.16.06-.17.14l-.46 2.96c-.01.07.03.13.09.13h.56c.09 0 .16-.06.17-.14l.12-.79c.01-.08.08-.14.16-.14h.37c.76 0 1.2-.37 1.31-1.1.05-.32.01-.57-.14-.75-.17-.19-.4-.31-.84-.31m.13 1.1c-.06.42-.37.42-.67.42h-.17l.12-.76c0-.05.05-.08.1-.08h.08c.2 0 .4 0 .5.12a.35.35 0 0 1 .04.3m1.6.14c-.05-.07-.11-.13-.17-.17-.06-.04-.14-.06-.23-.06-.28 0-.51.21-.59.51-.04.15-.01.28.08.37.06.07.16.1.29.1.24 0 .46-.1.56-.25l-.11.24c0 .07.03.13.1.13h.5c.09 0 .16-.06.17-.14l.31-2c.01-.07-.03-.13-.1-.13h-.51c-.08 0-.15.06-.16.13l-.14.27zm-.81 1.1c-.14 0-.23-.11-.19-.27.04-.16.19-.27.32-.27.13 0 .23.11.19.27-.04.16-.18.27-.32.27zm2.44-2.34h-.5c-.09 0-.16.06-.17.14l-.46 2.95c-.01.07.03.13.1.13h.5c.09 0 .16-.06.17-.14l.46-2.95c0-.07-.04-.13-.1-.13m-23.04-.0H14.5c-.09 0-.16.06-.17.13l-.47 2.96c-.01.07.03.13.1.13h.56c.09 0 .16-.06.17-.14l.12-.79c.01-.08.08-.14.16-.14h.37c.76 0 1.2-.37 1.31-1.1.05-.32.01-.57-.14-.75-.16-.2-.39-.3-.83-.3m.13 1.1c-.06.42-.37.42-.67.42h-.17l.12-.76c0-.05.05-.08.1-.08h.08c.2 0 .4 0 .5.12.05.07.07.17.04.3m3.16-.03h-1.17c-.09 0-.16.06-.17.14l-.46 2.96c-.01.07.03.13.09.13h.56c.09 0 .16-.06.17-.14l.12-.79c.01-.08.08-.14.16-.14h.37c.76 0 1.2-.37 1.31-1.1.05-.32.01-.57-.14-.75-.17-.19-.4-.31-.84-.31m.13 1.1c-.06.42-.37.42-.67.42h-.17l.12-.76c0-.05.05-.08.1-.08h.08c.2 0 .4 0 .5.12a.35.35 0 0 1 .04.3m1.6.14c-.05-.07-.11-.13-.17-.17-.06-.04-.14-.06-.23-.06-.28 0-.51.21-.59.51-.04.15-.01.28.08.37.06.07.16.1.29.1.24 0 .46-.1.56-.25l-.11.24c0 .07.03.13.1.13h.5c.09 0 .16-.06.17-.14l.31-2c.01-.07-.03-.13-.1-.13h-.51c-.08 0-.15.06-.16.13l-.14.27zm-.81 1.1c-.14 0-.23-.11-.19-.27.04-.16.19-.27.32-.27.13 0 .23.11.19.27-.04.16-.18.27-.32.27zm2.44-2.34h-.5c-.09 0-.16.06-.17.14l-.46 2.95c-.01.07.03.13.1.13h.5c.09 0 .16-.06.17-.14l.46-2.95c0-.07-.04-.13-.1-.13"/>
  <path fill="#FFFFFF" d="M25.57 22.53s.46-1.05 2.43-1.05c1.98 0 1.67 1.16 1.67 1.16s-1.64 0-2.08.7c-.44.7-.32 1.04-.32 1.04s-.22.48-1.06.48-1.34-.24-1.57-.7l-.12-.3c-.39-.82-.6-1.69-.6-2.6 0-.95.37-1.74 1.1-1.74.71 0 1.14.37 1.42.88l.23.47.43 1.04c.14.41.46.83 1.15.83.69 0 1.2-.42 1.2-1.13 0-1.33-.91-2.32-2.78-2.32-1.87 0-3.16 1.6-3.16 3.93 0 2.04 1.23 3.4 3.07 3.4 1.53 0 2.12-.7 2.12-.7l-.28-.72s-.64.56-1.71.56c-1.07 0-1.88-.33-1.88-2.57 0-2.24.84-2.96 1.64-2.96z"/>
  <linearGradient id="a" x1="23.065" x2="23.065" y1="22.004" y2="26.004" gradientTransform="matrix(1 0 0 -1 0 50)" gradientUnits="userSpaceOnUse">
    <stop offset="0" stop-color="#0069b4"/>
    <stop offset="1" stop-color="#0069b4" stop-opacity="0"/>
  </linearGradient>
  <path fill="url(#a)" d="M25.57 22.53s.46-1.05 2.43-1.05c1.98 0 1.67 1.16 1.67 1.16s-1.64 0-2.08.7c-.44.7-.32 1.04-.32 1.04s-.22.48-1.06.48-1.34-.24-1.57-.7l-.12-.3c-.39-.82-.6-1.69-.6-2.6 0-.95.37-1.74 1.1-1.74.71 0 1.14.37 1.42.88l.23.47.43 1.04c.14.41.46.83 1.15.83.69 0 1.2-.42 1.2-1.13 0-1.33-.91-2.32-2.78-2.32-1.87 0-3.16 1.6-3.16 3.93 0 2.04 1.23 3.4 3.07 3.4 1.53 0 2.12-.7 2.12-.7l-.28-.72s-.64.56-1.71.56c-1.07 0-1.88-.33-1.88-2.57 0-2.24.84-2.96 1.64-2.96z"/>
</svg>