<svg xmlns="http://www.w3.org/2000/svg" width="48" height="48" viewBox="0 0 128 128">
  <path fill="#1434CB" d="M113.8 26.9H14.2a7.27 7.27 0 0 0-7.3 7.3v59.7a7.27 7.27 0 0 0 7.3 7.3h99.7a7.27 7.27 0 0 0 7.3-7.3V34.1a7.63 7.63 0 0 0-7.4-7.2z"/>
  <path fill="#FFF" d="M49.5 84.9l7.1-41.7h11.3l-7.1 41.7H49.5zM97.4 44.5c-2.3-.9-5.9-1.9-10.4-1.9-11.5 0-19.6 5.8-19.6 14.1 0 6.1 5.8 9.5 10.2 11.5s6 3.4 6 5.2c0 2.8-3.6 4.1-6.9 4.1-4.6 0-7.1-.7-10.8-2.2l-1.5-.7-1.6 9.6c2.7 1.2 7.8 2.2 13 2.3 12.3 0 20.2-5.7 20.3-14.6.1-4.9-3-8.6-9.7-11.6-4-2-6.5-3.3-6.5-5.3 0-1.8 2.1-3.7 6.5-3.7 3.7-.1 6.5.8 8.5 1.6l1 .5 1.5-9.9zM117 43.2h-8.7a5.52 5.52 0 0 0-5.8 3.4L85.2 84.9h11.5l2.5-6.9h15.4c.4 1.6 1.5 6.9 1.5 6.9h10.2l-9.3-41.7zm-14.1 26.3l4.8-13.1c-.1.1 1-2.7 1.6-4.5l.8 3.9 2.8 13.7h-10z"/>
  <path fill="#F79E1B" d="M42.3 43.2 31.6 70.7l-1.1-5.3-3.4-17.1a4.23 4.23 0 0 0-4.6-3.6h-15l-.2.8c3.5.9 7.5 2.1 9.9 3.5l8.4 31.9H37l15.5-37.7H42.3z"/>
</svg>